<?xml version="1.0" encoding="utf-8"?>
<!-- Generator: Adobe Illustrator 25.0.0, SVG Export Plug-In . SVG Version: 6.00 Build 0)  -->
<svg version="1.1" id="Layer_1" xmlns="http://www.w3.org/2000/svg" xmlns:xlink="http://www.w3.org/1999/xlink" x="0px" y="0px"
	 viewBox="0 0 35 35" style="enable-background:new 0 0 35 35;" xml:space="preserve">
<style type="text/css">
	.st0{fill:#5BBC6B;}
	.st1{fill:#FFFFFF;}
	.st2{clip-path:url(#SVGID_2_);}
	.st3{fill:#7495CD;}
	.st4{fill-rule:evenodd;clip-rule:evenodd;fill:#F04F23;}
	.st5{fill:none;stroke:#111338;stroke-width:0.75;stroke-linecap:round;stroke-linejoin:round;stroke-miterlimit:10;}
	.st6{fill:#111338;}
	.st7{fill:#F0B61D;}
	.st8{fill:#71C058;}
	.st9{fill:#1AAB4F;}
</style>
<g>
	<defs>
		<rect id="SVGID_1_" width="35" height="35"/>
	</defs>
	<clipPath id="SVGID_2_">
		<use xlink:href="#SVGID_1_"  style="overflow:visible;"/>
	</clipPath>
	<g class="st2">
		<path class="st3" d="M6.4,0C2.8,0,0,2.9,0,6.4v22.2C0,32.1,2.8,35,6.4,35h12V21.3h-3.6v-4.9h3.6v-4.2c0-3.3,2.1-6.3,7.1-6.3
			C27.5,5.8,29,6,29,6l-0.1,4.6c0,0-1.5,0-3.2,0c-1.8,0-2.1,0.8-2.1,2.2v3.6H29l-0.2,4.9h-5.1V35h5c3.5,0,6.4-2.9,6.4-6.4V6.4
			C35,2.9,32.2,0,28.6,0H6.4L6.4,0z"/>
	</g>
</g>
</svg>
