<?xml version="1.0" encoding="utf-8"?>
<!-- Generator: Adobe Illustrator 25.0.0, SVG Export Plug-In . SVG Version: 6.00 Build 0)  -->
<svg version="1.1" id="Layer_1" xmlns="http://www.w3.org/2000/svg" xmlns:xlink="http://www.w3.org/1999/xlink" x="0px" y="0px"
	 viewBox="0 0 35 35" style="enable-background:new 0 0 35 35;" xml:space="preserve">
<style type="text/css">
	.st0{fill:#5BBC6B;}
	.st1{fill:#FFFFFF;}
	.st2{clip-path:url(#SVGID_2_);}
	.st3{fill:#7495CD;}
	.st4{fill-rule:evenodd;clip-rule:evenodd;fill:#F04F23;}
	.st5{fill:none;stroke:#111338;stroke-width:0.75;stroke-linecap:round;stroke-linejoin:round;stroke-miterlimit:10;}
	.st6{fill:#111338;}
	.st7{fill:#F0B61D;}
	.st8{fill:#71C058;}
	.st9{fill:#1AAB4F;}
</style>
<path class="st4" d="M10.3,0.1C12.2,0,12.7,0,17.5,0s5.3,0,7.2,0.1c1.9,0.1,3.1,0.4,4.3,0.8c1.2,0.4,2.2,1.1,3.1,2
	c0.9,0.9,1.6,1.9,2,3.1c0.4,1.1,0.7,2.4,0.8,4.2c0.1,1.9,0.1,2.5,0.1,7.2c0,4.8,0,5.3-0.1,7.2c-0.1,1.9-0.4,3.1-0.8,4.2
	c-0.4,1.2-1.1,2.2-2,3.1c-0.9,0.9-1.9,1.6-3.1,2c-1.1,0.4-2.4,0.7-4.2,0.8C22.8,35,22.3,35,17.5,35s-5.3,0-7.2-0.1S7.1,34.5,6,34.1
	c-1.2-0.4-2.2-1.1-3.1-2c-0.9-0.9-1.6-1.9-2-3.1c-0.4-1.1-0.7-2.4-0.8-4.2C0,22.8,0,22.3,0,17.5c0-4.8,0-5.3,0.1-7.2
	C0.2,8.4,0.5,7.2,0.9,6c0.4-1.2,1.1-2.2,2-3.1C3.8,2,4.9,1.4,6,0.9C7.1,0.5,8.4,0.2,10.3,0.1L10.3,0.1z M24.6,3.3
	c-1.8-0.1-2.4-0.1-7.1-0.1s-5.2,0-7.1,0.1C8.7,3.3,7.8,3.6,7.2,3.9c-0.8,0.3-1.4,0.7-2,1.3c-0.6,0.6-1,1.3-1.3,2
	c-0.2,0.6-0.5,1.5-0.6,3.3c-0.1,1.8-0.1,2.4-0.1,7.1s0,5.2,0.1,7.1c0.1,1.7,0.4,2.6,0.6,3.3c0.3,0.8,0.7,1.4,1.3,2
	c0.6,0.6,1.3,1,2,1.3c0.6,0.2,1.5,0.5,3.3,0.6c1.8,0.1,2.4,0.1,7.1,0.1s5.2,0,7.1-0.1c1.7-0.1,2.6-0.4,3.3-0.6
	c0.8-0.3,1.4-0.7,2-1.3c0.6-0.6,1-1.3,1.3-2c0.2-0.6,0.5-1.5,0.6-3.3c0.1-1.8,0.1-2.4,0.1-7.1s0-5.2-0.1-7.1
	c-0.1-1.7-0.4-2.6-0.6-3.3c-0.3-0.8-0.7-1.4-1.3-2c-0.6-0.6-1.3-1-2-1.3C27.2,3.6,26.3,3.3,24.6,3.3L24.6,3.3z M15.3,22.9
	c1.3,0.5,2.6,0.6,3.9,0.2c1.3-0.4,2.4-1.2,3.2-2.3c0.7-1.1,1.1-2.5,0.9-3.8c-0.1-1.3-0.7-2.6-1.7-3.6c-0.6-0.6-1.3-1.1-2.2-1.4
	c-0.8-0.3-1.7-0.4-2.5-0.3c-0.9,0.1-1.7,0.4-2.4,0.8s-1.4,1-1.9,1.8c-0.5,0.7-0.8,1.5-0.9,2.4c-0.1,0.9-0.1,1.7,0.2,2.6
	c0.3,0.8,0.7,1.6,1.3,2.2C13.8,22.1,14.5,22.6,15.3,22.9z M11.1,11.1c0.8-0.8,1.8-1.5,2.9-2c1.1-0.5,2.3-0.7,3.4-0.7
	s2.4,0.2,3.4,0.7c1.1,0.5,2.1,1.1,2.9,2c0.8,0.8,1.5,1.8,2,2.9c0.4,1.1,0.7,2.3,0.7,3.4s-0.2,2.4-0.7,3.4c-0.5,1.1-1.1,2.1-2,2.9
	c-1.7,1.7-4,2.6-6.4,2.6s-4.7-0.9-6.4-2.6c-1.7-1.7-2.6-4-2.6-6.4S9.4,12.8,11.1,11.1L11.1,11.1z M28.5,9.8c0.2-0.2,0.4-0.4,0.5-0.7
	c0.1-0.3,0.2-0.5,0.2-0.8c0-0.3-0.1-0.6-0.2-0.8c-0.1-0.3-0.3-0.5-0.5-0.7c-0.2-0.2-0.4-0.4-0.7-0.5c-0.3-0.1-0.5-0.2-0.8-0.2
	c-0.3,0-0.6,0.1-0.8,0.2c-0.3,0.1-0.5,0.3-0.7,0.5c-0.4,0.4-0.6,0.9-0.6,1.5c0,0.6,0.2,1.1,0.6,1.5c0.4,0.4,0.9,0.6,1.5,0.6
	C27.6,10.4,28.1,10.2,28.5,9.8L28.5,9.8z"/>
</svg>
