<?xml version="1.0" encoding="utf-8"?>
<!-- Generator: Adobe Illustrator 25.0.0, SVG Export Plug-In . SVG Version: 6.00 Build 0)  -->
<svg version="1.1" id="Layer_1" xmlns="http://www.w3.org/2000/svg" xmlns:xlink="http://www.w3.org/1999/xlink" x="0px" y="0px"
	 viewBox="0 0 335.7 85" style="enable-background:new 0 0 335.7 85;" xml:space="preserve">
<style type="text/css">
	.st0{fill:#5BBC6B;}
	.st1{fill:#FFFFFF;}
	.st2{clip-path:url(#SVGID_2_);}
	.st3{fill:#7495CD;}
	.st4{fill-rule:evenodd;clip-rule:evenodd;fill:#F04F23;}
	.st5{fill:none;stroke:#111338;stroke-width:0.75;stroke-linecap:round;stroke-linejoin:round;stroke-miterlimit:10;}
	.st6{fill:#111338;}
	.st7{fill:#F0B61D;}
	.st8{fill:#71C058;}
	.st9{fill:#1AAB4F;}
</style>
<line class="st5" x1="167.5" y1="16.5" x2="167.5" y2="69"/>
<g>
	<path class="st6" d="M187,45.8v-8.4h1.1v3.7h5v-3.7h1.1v8.4h-1.1V42h-5v3.8H187z"/>
	<path class="st6" d="M195.7,44c0-1.3,0.8-1.9,2.5-1.9c0.5,0,1.1,0,1.6,0.1v-0.6c0-0.7-0.6-1.1-1.7-1.1c-0.6,0-1.3,0.1-1.9,0.3V40
		c0.7-0.2,1.3-0.3,1.9-0.3c1.8,0,2.7,0.6,2.7,1.9v4.2h-0.6l-0.4-0.6c-0.6,0.4-1.3,0.6-2,0.6C196.5,45.8,195.7,45.2,195.7,44z
		 M198.2,43c-0.9,0-1.4,0.3-1.4,1s0.4,1,1.1,1c0.8,0,1.4-0.2,1.9-0.6v-1.3C199.3,43,198.8,43,198.2,43z"/>
	<path class="st6" d="M202.7,45.8v-6.2h0.7l0.2,0.8c0.5-0.5,1.2-0.8,1.9-0.8v0.9c-0.7,0-1.3,0.3-1.8,0.8v4.5H202.7z"/>
	<path class="st6" d="M205.8,39.7h1.2l1.8,4.8l1.8-4.8h1.2l-2.5,6.2h-1L205.8,39.7z"/>
	<path class="st6" d="M215,39.7c1.8,0,2.6,0.9,2.6,2.6c0,0.2,0,0.5-0.1,0.8h-4.3c0,1.3,0.7,1.9,2.2,1.9c0.7,0,1.3-0.1,1.9-0.2v0.9
		c-0.5,0.2-1.2,0.2-2,0.2c-2.1,0-3.2-1-3.2-3.1C212.2,40.7,213.2,39.7,215,39.7z M213.3,42.2h3.3c0-1.1-0.6-1.6-1.6-1.6
		C213.9,40.5,213.4,41.1,213.3,42.2z"/>
	<path class="st6" d="M219.1,45.5v-0.9c0.7,0.2,1.5,0.4,2.2,0.4c1,0,1.5-0.3,1.5-0.9c0-0.5-0.3-0.8-1-0.8h-0.9c-1.3,0-2-0.6-2-1.8
		c0-1.2,0.9-1.8,2.6-1.8c0.7,0,1.5,0.1,2.2,0.3v0.9c-0.7-0.2-1.5-0.4-2.2-0.4c-1,0-1.5,0.3-1.5,0.9c0,0.5,0.3,0.8,1,0.8h0.9
		c1.4,0,2.1,0.6,2.1,1.8c0,1.2-0.9,1.8-2.6,1.8C220.5,45.8,219.8,45.7,219.1,45.5z"/>
	<path class="st6" d="M225.3,38.7h0.7l0.2,1h1.7v0.9h-1.5v3.5c0,0.6,0.2,0.9,0.7,0.9h0.8v0.9h-1c-1,0-1.5-0.6-1.5-1.7V38.7z"/>
	<path class="st6" d="M230.4,37.4v1h-1.1v-1H230.4z M230.4,39.7v6.2h-1.1v-6.2H230.4z"/>
	<path class="st6" d="M232.3,45.8v-6.2h0.7l0.2,0.8c0.6-0.5,1.3-0.8,2.1-0.8c1.5,0,2.3,0.8,2.3,2.3v3.9h-1.1v-3.9
		c0-0.9-0.5-1.4-1.4-1.4c-0.6,0-1.2,0.3-1.8,0.8v4.5H232.3z"/>
	<path class="st6" d="M244.6,45.8c0,1.5-0.9,2.2-2.8,2.2c-0.8,0-1.4-0.1-2-0.3v-0.9c0.6,0.2,1.3,0.3,2,0.3c1.2,0,1.7-0.4,1.7-1.3
		v-0.3c-0.5,0.2-1,0.3-1.5,0.3c-1.9,0-2.9-1-2.9-3.1c0-2,1-3,3.1-3c0.8,0,1.6,0.1,2.4,0.3V45.8z M243.5,40.7
		c-0.4-0.1-0.8-0.1-1.4-0.1c-1.3,0-2,0.7-2,2.1c0,1.5,0.6,2.2,1.9,2.2c0.6,0,1.1-0.1,1.5-0.3V40.7z"/>
	<path class="st6" d="M249.1,45.8v-8.4h1.6v3c0.5-0.5,1.1-0.8,1.9-0.8c1.5,0,2.2,0.8,2.2,2.3v3.9h-1.6v-3.9c0-0.7-0.3-1-1-1
		c-0.5,0-1,0.2-1.5,0.6v4.3H249.1z"/>
	<path class="st6" d="M258.8,39.7c1.9,0,2.8,1,2.8,2.9c0,0.3,0,0.5-0.1,0.8h-4.1c0,0.9,0.6,1.3,1.9,1.3c0.6,0,1.2-0.1,1.9-0.2v1.2
		c-0.5,0.1-1.2,0.2-2,0.2c-2.2,0-3.3-1-3.3-3.1C255.9,40.7,256.8,39.7,258.8,39.7z M257.4,42.2h2.6v0c0-0.9-0.4-1.3-1.3-1.3
		C257.9,40.9,257.5,41.3,257.4,42.2z"/>
	<path class="st6" d="M262.4,43.9c0-1.2,0.9-1.8,2.7-1.8c0.4,0,0.8,0,1.3,0.1v-0.5c0-0.6-0.4-0.8-1.2-0.8c-0.7,0-1.4,0.1-2.2,0.3V40
		c0.8-0.2,1.6-0.3,2.2-0.3c1.8,0,2.7,0.7,2.7,2v4.1H267l-0.6-0.6c-0.5,0.4-1.1,0.6-1.8,0.6C263.2,45.8,262.4,45.2,262.4,43.9z
		 M265.1,43.1c-0.7,0-1.1,0.3-1.1,0.8c0,0.5,0.3,0.8,0.9,0.8c0.5,0,1-0.2,1.4-0.5v-1C266,43.2,265.6,43.1,265.1,43.1z"/>
	<path class="st6" d="M270.9,37.4v8.4h-1.6v-8.4H270.9z"/>
	<path class="st6" d="M272.3,38.7h1.1l0.2,1h1.5v1.2h-1.4v2.8c0,0.6,0.2,0.9,0.7,0.9h0.6v1.2h-1.4c-1,0-1.5-0.6-1.5-1.7V38.7z"/>
	<path class="st6" d="M276.3,45.8v-8.4h1.6v3c0.5-0.5,1.1-0.8,1.9-0.8c1.5,0,2.2,0.8,2.2,2.3v3.9h-1.6v-3.9c0-0.7-0.3-1-1-1
		c-0.5,0-1,0.2-1.5,0.6v4.3H276.3z"/>
	<path class="st6" d="M284.9,37.4v1.2h-1.6v-1.2H284.9z M284.9,39.7v6.2h-1.6v-6.2H284.9z"/>
	<path class="st6" d="M286.4,45.8v-6.2h1.2l0.2,0.9c0.6-0.6,1.3-0.9,2-0.9c1.5,0,2.2,0.8,2.2,2.3v3.9h-1.6v-3.9c0-0.7-0.3-1-1-1
		c-0.5,0-1,0.2-1.5,0.6v4.3H286.4z"/>
	<path class="st6" d="M296,39.7c1.9,0,2.8,1,2.8,2.9c0,0.3,0,0.5-0.1,0.8h-4.1c0,0.9,0.6,1.3,1.9,1.3c0.6,0,1.2-0.1,1.9-0.2v1.2
		c-0.5,0.1-1.2,0.2-2,0.2c-2.2,0-3.3-1-3.3-3.1C293.1,40.7,294.1,39.7,296,39.7z M294.7,42.2h2.6v0c0-0.9-0.4-1.3-1.3-1.3
		C295.2,40.9,294.8,41.3,294.7,42.2z"/>
	<path class="st6" d="M300,45.5v-1.3c0.7,0.3,1.5,0.4,2.4,0.4c0.7,0,1-0.2,1-0.6c0-0.4-0.2-0.6-0.7-0.6h-1.1c-1.2,0-1.9-0.6-1.9-1.8
		c0-1.3,0.9-1.9,2.7-1.9c0.8,0,1.5,0.1,2.2,0.4v1.3c-0.7-0.3-1.4-0.4-2.2-0.4c-0.8,0-1.3,0.2-1.3,0.6c0,0.4,0.2,0.6,0.7,0.6h1
		c1.4,0,2.1,0.6,2.1,1.8c0,1.3-0.9,1.9-2.6,1.9C301.5,45.9,300.7,45.8,300,45.5z"/>
	<path class="st6" d="M306,45.5v-1.3c0.7,0.3,1.5,0.4,2.4,0.4c0.7,0,1-0.2,1-0.6c0-0.4-0.2-0.6-0.7-0.6h-1.1c-1.2,0-1.9-0.6-1.9-1.8
		c0-1.3,0.9-1.9,2.7-1.9c0.8,0,1.5,0.1,2.2,0.4v1.3c-0.7-0.3-1.4-0.4-2.2-0.4c-0.8,0-1.3,0.2-1.3,0.6c0,0.4,0.2,0.6,0.7,0.6h1
		c1.4,0,2.1,0.6,2.1,1.8c0,1.3-0.9,1.9-2.6,1.9C307.5,45.9,306.7,45.8,306,45.5z"/>
	<path class="st6" d="M313.4,44.4v1.4h-1.6v-1.4H313.4z"/>
</g>
<g>
	<g>
		<g>
			<path d="M62.6,16.3c1.3,0,2.3,1.1,2.3,2.3c0,1.3-1.1,2.3-2.3,2.3c-1.3,0-2.4-1.1-2.4-2.3C60.2,17.3,61.3,16.3,62.6,16.3z"/>
			<g>
				<path d="M16,37.7h3L26.1,20h-3.3v-2.7h8.1l8.3,20.4h3v2.7h-9.9v-2.7h3.4L34,33.3H24l-1.7,4.4h3.4v2.7H16V37.7z M32.9,30.6
					l-3.9-10l-3.9,10H32.9z"/>
				<path d="M43.3,39.9v-4.3h2.6v2.3c0.9,0.3,2.3,0.5,3.5,0.5c2.1,0,3.4-0.8,3.4-2.1c0-3.6-9.3-1.7-9.3-7.8c0-2.8,2.1-4.8,6.2-4.8
					c2,0,4.2,0.5,5.5,0.9v4.3h-2.7v-2.4c-0.8-0.2-2-0.3-2.8-0.3c-2.2,0-3.1,0.9-3.1,2c0,3.7,9.3,1.7,9.3,7.8c0,2.7-1.8,4.7-6.5,4.7
					C47.3,40.8,44.8,40.4,43.3,39.9z"/>
				<polygon points="58.5,37.8 61.2,37.8 61.2,26.8 58.5,26.8 58.5,24.2 64.5,24.2 64.5,37.8 67.2,37.8 67.2,40.4 58.5,40.4 				"/>
				<path d="M68.9,36c0-4,3.7-5,7.4-5h3.2v-1.2c0-2.5-0.9-3.4-3.8-3.4c-2,0-4.1,0.5-5.5,0.9v-2.5c1.6-0.5,3.9-1,6.1-1
					c4.2,0,6.4,1.6,6.4,5.8v8.3h2.7v2.6h-5.8v-2c-1.2,1.1-3,2.4-5.5,2.4C71.2,40.8,68.9,39.2,68.9,36z M79.5,36.3v-3.2h-3
					c-2.3,0-4.3,0.6-4.3,2.8c0,1.5,0.9,2.6,2.8,2.6C76.9,38.4,78.4,37.4,79.5,36.3z"/>
				<path d="M87,37.8h2.7V26.8H87v-2.6h5.9v2.3c1.7-1.5,3.8-2.7,6.2-2.7c2.9,0,4.8,1.7,4.8,5.2v8.9h2.8v2.6h-8.7v-2.6h2.8v-8.6
					c0-1.8-0.6-2.9-2.5-2.9c-1.9,0-3.8,1.2-5.2,2.3v9.1h2.7v2.6H87V37.8z"/>
				<path d="M16,65.3h3.1V49.2H16v-3.5h10.6v3.5h-3.1v6.2h10.9v-6.2h-3.1v-3.5H42v3.5h-3.1v16.1H42v3.5H31.3v-3.5h3.1v-6.2H23.5v6.2
					h3.1v3.5H16V65.3z"/>
				<path d="M44.1,64.2c0-3.9,3.4-5.1,7.6-5.1h2.7v-1c0-2-0.8-2.8-3.5-2.8c-2,0-4.2,0.5-5.4,0.8V53c1.5-0.5,4-0.9,6.3-0.9
					c4.4,0,6.9,1.6,6.9,6v7.4h2.4v3.3h-6.5V67c-1.1,1.1-2.7,2.3-5.2,2.3C46.4,69.2,44.1,67.5,44.1,64.2z M54.4,64.4v-2.6h-2.5
					c-2.2,0-3.5,0.6-3.5,2.2c0,1,0.5,2.2,2.3,2.2C52.3,66.2,53.5,65.3,54.4,64.4z"/>
				<path d="M62.7,65.5h2.5v-9.7h-2.5v-3.3h6.6v3c0.8-1.6,2.5-3.4,5.4-3.4h0.3l0,3.7h-0.7c-2.4,0-4,1.1-4.9,1.7v8.1h2.8v3.3h-9.6
					V65.5z"/>
				<path d="M77.8,55.7h-2V52h8.6v3.5H82l3.6,8.9l3.6-8.9H87V52h8.3v3.7h-2l-5.6,13.1h-4.2L77.8,55.7z"/>
				<path d="M96.2,60.6c0-5,2.8-8.6,8-8.6c5.2,0,7.5,3.6,7.5,8.1c0,0.6,0,1.2-0.2,1.8h-11.1c0.4,2.6,2,4,4.9,4c2.2,0,4-0.8,5.3-1.5
					v3.3c-1.3,0.7-3.3,1.5-5.9,1.5C99,69.2,96.2,65.6,96.2,60.6z M100.5,59h7.2c-0.2-1.9-0.9-3.9-3.4-3.9
					C101.8,55.2,100.8,57,100.5,59z"/>
				<path d="M114,68.3v-4.6h3.4v2c0.7,0.2,2,0.4,3,0.4c1.9,0,2.7-0.8,2.7-1.6c0-2.9-9-1.3-9-7.4c0-3,2.1-5.1,6.6-5.1
					c2.2,0,4.6,0.5,5.8,0.9v4.6h-3.4v-2.2c-0.7-0.2-1.7-0.2-2.3-0.2c-1.9,0-2.5,0.8-2.5,1.6c0,3.1,9,1.3,9,7.6c0,2.4-1.3,5-6.8,5
					C118.1,69.2,115.4,68.7,114,68.3z"/>
				<path d="M131.5,64.3v-8.5h-2.8v-3.4h2.8v-4.2h4.3v4.2h4.5v3.4h-4.5v8.3c0,1.6,0.9,1.9,2.2,1.9c1,0,1.9-0.2,2.5-0.4v3.1
					c-1,0.3-2.3,0.6-3.9,0.6C132.6,69.2,131.5,67.3,131.5,64.3z"/>
				<path d="M142.8,66.6c0-1.4,1.2-2.6,2.6-2.6c1.4,0,2.6,1.2,2.6,2.6c0,1.4-1.2,2.6-2.6,2.6C144,69.2,142.8,68,142.8,66.6z"/>
			</g>
		</g>
		<g>
			<path class="st7" d="M135.1,31c0.1,0,0.2,0,0.2-0.1c0.5-1,0.8-2.2,0.8-3.4c0-4.1-3.4-7.5-7.5-7.5c-2.7,0-5.1,1.4-6.4,3.6
				C127.2,24.9,131.7,27.5,135.1,31z"/>
			<path class="st8" d="M122.3,23.6c-2.2-0.6-4.5-0.8-6.8-0.8c-2,0-3.9,0.2-5.7,0.6c0,0.4,0,0.8,0,1.1v0c0,7.3,4,13.7,10,17.1
				c1.9-2.7,4.3-5,7.1-6.9c2.5-1.7,5.3-3,8.4-3.8C131.7,27.5,127.2,24.9,122.3,23.6z"/>
			<path class="st9" d="M142.3,30c-2.4,0-4.7,0.3-6.9,0.9c-0.1,0-0.2,0-0.2,0.1c-3,0.8-5.8,2.1-8.4,3.8c-2.7,1.8-5.1,4.2-7.1,6.9
				c2.8,1.6,6.1,2.5,9.6,2.5h0c4.5,0,8.6-1.5,11.9-4c3.1-2.4,5.5-5.7,6.8-9.5C146.2,30.3,144.2,30,142.3,30z"/>
		</g>
	</g>
	<g>
		<path d="M142.4,19.1c0-1.6,1.3-2.8,2.8-2.8c1.5,0,2.8,1.3,2.8,2.8c0,1.5-1.3,2.8-2.8,2.8C143.6,21.9,142.4,20.6,142.4,19.1z
			 M147.5,19.1c0-1.3-1-2.3-2.3-2.3c-1.3,0-2.3,1-2.3,2.3s1,2.3,2.3,2.3C146.5,21.4,147.5,20.3,147.5,19.1z M143.9,19.9h0.4v-1.7
			h-0.4v-0.5h1.4c0.7,0,1.1,0.4,1.1,0.8c0,0.4-0.3,0.6-0.5,0.7l0.4,0.6h0.4v0.4h-0.8l-0.5-0.9h-0.4v0.5h0.4v0.4h-1.4V19.9z
			 M145.3,19c0.3,0,0.5-0.2,0.5-0.4c0-0.2-0.2-0.4-0.5-0.4h-0.4V19H145.3z"/>
	</g>
</g>
</svg>
