<?xml version="1.0" encoding="utf-8"?>
<!-- Generator: Adobe Illustrator 25.0.0, SVG Export Plug-In . SVG Version: 6.00 Build 0)  -->
<svg version="1.1" id="Layer_1" xmlns="http://www.w3.org/2000/svg" xmlns:xlink="http://www.w3.org/1999/xlink" x="0px" y="0px"
	 viewBox="0 0 79 78.7" style="enable-background:new 0 0 79 78.7;" xml:space="preserve">
<style type="text/css">
	.st0{fill:#5BBC6B;}
	.st1{fill:#FFFFFF;}
	.st2{clip-path:url(#SVGID_2_);}
	.st3{fill:#7495CD;}
	.st4{fill-rule:evenodd;clip-rule:evenodd;fill:#F04F23;}
	.st5{fill:none;stroke:#111338;stroke-width:0.75;stroke-linecap:round;stroke-linejoin:round;stroke-miterlimit:10;}
	.st6{fill:#111338;}
	.st7{fill:#F0B61D;}
	.st8{fill:#71C058;}
	.st9{fill:#1AAB4F;}
</style>
<path class="st0" d="M20.9,67.7l1.3,0.6c5.4,3.2,11.4,4.7,17.4,4.7c18.9,0,34.4-15.3,34.4-34c0-8.9-3.7-17.7-10.1-24
	c-6.5-6.4-15.1-10-24.3-10C20.7,4.9,5.2,20.2,5.4,39.1c0,6.4,1.9,12.6,5.2,17.9l0.9,1.3L8,70.9L20.9,67.7z"/>
<path class="st1" d="M67.6,11.5C60.3,4,50.2,0,39.8,0C17.9,0,0.2,17.7,0.4,39.1c0,6.8,1.9,13.4,5.2,19.4L0,78.7l20.9-5.3
	c5.8,3.2,12.3,4.7,18.7,4.7C61.3,78.1,79,60.4,79,38.9C79,28.5,74.9,18.7,67.6,11.5L67.6,11.5z M39.8,71.5C34,71.5,28.2,70,23.2,67
	l-1.3-0.6L9.5,69.6l3.2-12.1l-0.9-1.3C2.4,41.1,6.9,21.1,22.4,11.7c15.5-9.4,35.5-4.9,45,10.4c9.5,15.3,4.9,35.1-10.6,44.5
	C51.9,69.8,45.8,71.5,39.8,71.5L39.8,71.5z M58.8,47.9l-2.4-1.1c0,0-3.4-1.5-5.6-2.6c-0.2,0-0.4-0.2-0.7-0.2c-0.6,0-1.1,0.2-1.5,0.4
	c0,0-0.2,0.2-3.2,3.6c-0.2,0.4-0.7,0.6-1.1,0.6h-0.2c-0.2,0-0.6-0.2-0.9-0.4l-1.1-0.4c-2.4-1.1-4.5-2.3-6.2-4
	c-0.4-0.4-1.1-0.9-1.5-1.3c-1.5-1.5-3-3.2-4.1-5.1L30.1,37c-0.2-0.2-0.2-0.4-0.4-0.9c0-0.4,0-0.9,0.2-1.1c0,0,0.9-1.1,1.5-1.7
	c0.4-0.4,0.6-1.1,1.1-1.5c0.4-0.6,0.7-1.5,0.4-2.1c-0.2-1.1-2.8-6.8-3.4-8.1c-0.4-0.6-0.9-0.9-1.5-1.1h-2.4c-0.4,0-0.9,0.2-1.3,0.2
	l-0.2,0.2c-0.4,0.2-0.9,0.6-1.3,0.9c-0.4,0.4-0.6,0.9-1.1,1.3c-1.5,1.9-2.4,4.3-2.4,6.6c0,1.7,0.4,3.4,1.1,4.9l0.2,0.6
	c1.9,4,4.5,7.7,8,10.9l0.9,0.9c0.6,0.6,1.3,1.1,1.7,1.7c4.5,3.8,9.7,6.6,15.5,8.1c0.6,0.2,1.5,0.2,2.2,0.4H51c1.1,0,2.4-0.4,3.2-0.9
	c0.7-0.4,1.1-0.4,1.5-0.9l0.4-0.4c0.4-0.4,0.9-0.6,1.3-1.1c0.4-0.4,0.9-0.9,1.1-1.3c0.4-0.9,0.6-1.9,0.9-3v-1.5
	C59.4,48.3,59.2,48.1,58.8,47.9L58.8,47.9z"/>
</svg>
