<?xml version="1.0" encoding="utf-8"?>
<!-- Generator: Adobe Illustrator 25.0.0, SVG Export Plug-In . SVG Version: 6.00 Build 0)  -->
<svg version="1.1" id="Layer_1" xmlns="http://www.w3.org/2000/svg" xmlns:xlink="http://www.w3.org/1999/xlink" x="0px" y="0px"
	 viewBox="0 0 191.6 84" style="enable-background:new 0 0 191.6 84;" xml:space="preserve">
<style type="text/css">
	.st0{fill:#20BBEB;}
	.st1{fill:#F5F6F7;}
	.st2{fill:#3BAF49;}
	.st3{fill:#F2EA2D;}
</style>
<g>
	<path class="st0" d="M166.5,17c7.2,4.1,12.8,10.4,16.2,18.3c3.7,10.6,4.1,24.3-3.6,33.5c-1.6,2.2-5.1,0.9-6.6-0.2
		c-17.5-18.1-37.2-14.2-54.8,2.6c-7.4,7.1-15.6-6.6-16.3-15c0-0.5-0.1-1.1-0.1-1.6c-1.1-28,25.3-48.9,52.6-42.8c0.1,0,0.2,0,0.3,0.1
		c3.3,0.7,6.4,1.8,9.4,3.4C164.5,15.8,165.5,16.4,166.5,17z"/>
	<g>
		<g>
			<path class="st1" d="M118.3,44.6H115l-0.5,1.6h-2.3l3.3-9h2.5l3.3,9h-2.3L118.3,44.6z M116.6,39.6l-1.1,3.3h2.2L116.6,39.6z"/>
			<path class="st1" d="M130.3,41.7c0,2.7-1.8,4.5-4.7,4.5h-3.4v-9h3.4C128.4,37.2,130.3,39,130.3,41.7z M125.4,44.3
				c1.7,0,2.6-1,2.6-2.6s-1-2.6-2.6-2.6h-1v5.2H125.4z"/>
			<path class="st1" d="M139.6,41.7c0,2.7-1.8,4.5-4.7,4.5h-3.4v-9h3.4C137.8,37.2,139.6,39,139.6,41.7z M134.7,44.3
				c1.7,0,2.6-1,2.6-2.6s-1-2.6-2.6-2.6h-1v5.2H134.7z"/>
			<path class="st1" d="M147.8,46.3c-2.6,0-4.6-1.9-4.6-4.6s2.1-4.6,4.6-4.6c2.6,0,4.6,1.9,4.6,4.6S150.4,46.3,147.8,46.3z
				 M147.8,44.3c1.4,0,2.4-1,2.4-2.6c0-1.6-0.9-2.6-2.4-2.6c-1.5,0-2.4,1-2.4,2.6C145.4,43.3,146.4,44.3,147.8,44.3z"/>
			<path class="st1" d="M161.7,37.2v9h-2.2l-3.7-5.6v5.6h-2.2v-9h2.2l3.7,5.6v-5.6H161.7z"/>
			<path class="st1" d="M166.6,46.3c-1.9,0-3.5-1-3.5-2.8h2.3c0.1,0.7,0.5,1,1.1,1c0.6,0,1.1-0.3,1.1-0.8c0-1.7-4.5-0.8-4.5-4
				c0-1.7,1.4-2.7,3.3-2.7c2,0,3.3,1,3.4,2.7h-2.4c0-0.6-0.4-0.9-1-0.9c-0.5,0-0.9,0.3-0.9,0.8c0,1.6,4.5,0.9,4.5,3.9
				C169.9,45,168.7,46.3,166.6,46.3z"/>
			<path class="st1" d="M172.9,46.3c-0.8,0-1.3-0.5-1.3-1.2c0-0.7,0.5-1.2,1.3-1.2c0.8,0,1.3,0.5,1.3,1.2
				C174.2,45.8,173.7,46.3,172.9,46.3z M171.7,36.9h2.4l-0.3,6.2H172L171.7,36.9z"/>
		</g>
	</g>
	<g>
		<g>
			<path class="st1" d="M142,23.8v9h-2.2l-3.7-5.6v5.6h-2.2v-9h2.2l3.7,5.6v-5.6H142z"/>
			<path class="st1" d="M147.8,32.9c-2.6,0-4.6-1.9-4.6-4.6s2.1-4.6,4.6-4.6c2.6,0,4.6,1.9,4.6,4.6S150.4,32.9,147.8,32.9z
				 M147.8,30.9c1.4,0,2.4-1,2.4-2.6c0-1.6-0.9-2.6-2.4-2.6c-1.5,0-2.4,1-2.4,2.6C145.4,29.8,146.4,30.9,147.8,30.9z"/>
		</g>
	</g>
</g>
<g>
	<path class="st2" d="M71.9,17c7.2,4.1,12.8,10.4,16.2,18.3c3.7,10.6,4.1,24.3-3.6,33.5c-1.6,2.2-5.1,0.9-6.6-0.2
		C60.3,50.6,40.6,54.5,23,71.3c-7.4,7.1-15.6-6.6-16.3-15c0-0.5-0.1-1.1-0.1-1.6c-1.1-28,25.3-48.9,52.6-42.8c0.1,0,0.2,0,0.3,0.1
		c3.3,0.7,6.4,1.8,9.4,3.4C69.9,15.8,70.9,16.4,71.9,17z"/>
	<g>
		<g>
			<path class="st1" d="M32.3,33.1v9h-2.2l-3.7-5.6v5.6h-2.2v-9h2.2l3.7,5.6v-5.6H32.3z"/>
			<path class="st1" d="M36.7,34.8c1.1,0,1.8,0.5,2.2,1.1v-1h2.2v7.2h-2.2v-1c-0.4,0.6-1.2,1.1-2.2,1.1c-1.7,0-3.1-1.4-3.1-3.7
				C33.5,36.3,34.9,34.8,36.7,34.8z M37.3,36.8c-0.8,0-1.6,0.6-1.6,1.8s0.7,1.8,1.6,1.8c0.8,0,1.6-0.6,1.6-1.8S38.1,36.8,37.3,36.8z
				"/>
			<path class="st1" d="M43,36.8h-0.9V35H43v-1.7h2.2V35h1.4v1.8h-1.4v2.9c0,0.4,0.2,0.6,0.7,0.6h0.8v1.9h-1.1
				c-1.5,0-2.5-0.6-2.5-2.5V36.8z"/>
			<path class="st1" d="M54.9,42.1h-2.2v-1c-0.4,0.6-1.2,1.1-2.2,1.1c-1.7,0-2.8-1.1-2.8-3.1V35H50v3.9c0,1,0.6,1.5,1.4,1.5
				c0.8,0,1.4-0.5,1.4-1.5V35h2.2V42.1z"/>
			<path class="st1" d="M58.7,42.1h-2.2V35h2.2v1.2c0.5-0.8,1.3-1.3,2.2-1.3v2.3h-0.6c-1,0-1.6,0.4-1.6,1.6V42.1z"/>
			<path class="st1" d="M64.7,34.8c1.1,0,1.8,0.5,2.2,1.1v-1h2.2v7.2h-2.2v-1c-0.4,0.6-1.2,1.1-2.2,1.1c-1.7,0-3.1-1.4-3.1-3.7
				C61.6,36.3,63,34.8,64.7,34.8z M65.4,36.8c-0.8,0-1.6,0.6-1.6,1.8s0.7,1.8,1.6,1.8c0.8,0,1.6-0.6,1.6-1.8S66.2,36.8,65.4,36.8z"
				/>
			<path class="st1" d="M70.7,32.6h2.2v9.5h-2.2V32.6z"/>
		</g>
	</g>
	<g>
		<g>
			<path class="st1" d="M33.9,22.8h-1.3v-2h3.6v9.4h-2.3V22.8z"/>
			<path class="st1" d="M41.3,20.5c2.7,0,3.6,2,3.6,4.8c0,2.8-0.9,4.8-3.6,4.8c-2.7,0-3.6-2-3.6-4.8C37.7,22.5,38.6,20.5,41.3,20.5z
				 M41.3,22.6c-1.3,0-1.5,1.3-1.5,2.7c0,1.5,0.2,2.7,1.5,2.7s1.5-1.2,1.5-2.7C42.7,23.8,42.6,22.6,41.3,22.6z"/>
			<path class="st1" d="M49.6,20.5c2.7,0,3.6,2,3.6,4.8c0,2.8-0.9,4.8-3.6,4.8c-2.7,0-3.6-2-3.6-4.8C46,22.5,47,20.5,49.6,20.5z
				 M49.6,22.6c-1.3,0-1.5,1.3-1.5,2.7c0,1.5,0.2,2.7,1.5,2.7s1.5-1.2,1.5-2.7C51.1,23.8,50.9,22.6,49.6,22.6z"/>
			<path class="st1" d="M56.3,20.9c1.2,0,2.1,0.7,2.1,2.2c0,1.4-0.9,2.2-2.1,2.2s-2.1-0.7-2.1-2.2C54.2,21.7,55.1,20.9,56.3,20.9z
				 M55.7,23.1c0,0.6,0.2,0.9,0.6,0.9c0.4,0,0.6-0.3,0.6-0.9c0-0.6-0.2-0.9-0.6-0.9C55.9,22.2,55.7,22.5,55.7,23.1z M60.8,21.1h2.1
				l-4.9,9h-2.1L60.8,21.1z M62.4,25.9c1.2,0,2.1,0.7,2.1,2.2c0,1.4-0.9,2.2-2.1,2.2s-2.1-0.7-2.1-2.2
				C60.3,26.6,61.2,25.9,62.4,25.9z M61.8,28.1c0,0.6,0.2,0.9,0.6,0.9s0.6-0.3,0.6-0.9s-0.2-0.9-0.6-0.9S61.8,27.5,61.8,28.1z"/>
		</g>
	</g>
	<g>
		<path class="st3" d="M21.9,46.2v5.1h-1l-2.3-3.5v3.5h-1v-5.1h1l2.3,3.5v-3.5H21.9z"/>
		<path class="st3" d="M24.7,51.4c-1.2,0-2.1-0.8-2.1-2.1c0-1.3,0.9-2.1,2.1-2.1c1.2,0,2.1,0.8,2.1,2.1
			C26.9,50.6,25.9,51.4,24.7,51.4z M24.7,50.5c0.5,0,1.1-0.4,1.1-1.2c0-0.8-0.5-1.2-1-1.2c-0.5,0-1,0.4-1,1.2
			C23.7,50.1,24.2,50.5,24.7,50.5z"/>
		<path class="st3" d="M31.7,47.2c1,0,1.9,0.8,1.9,2.1s-0.8,2.1-1.9,2.1c-0.6,0-1.1-0.3-1.3-0.6v2.5h-1v-6h1v0.6
			C30.6,47.5,31.1,47.2,31.7,47.2z M31.5,48.1c-0.6,0-1.1,0.4-1.1,1.2s0.5,1.2,1.1,1.2c0.6,0,1.1-0.4,1.1-1.2S32,48.1,31.5,48.1z"/>
		<path class="st3" d="M35.4,51.4h-1v-4.1h1v0.6c0.3-0.4,0.7-0.7,1.2-0.7v1.1h-0.3c-0.6,0-1,0.2-1,1V51.4z"/>
		<path class="st3" d="M39.1,51.4c-1.2,0-2-0.8-2-2.1c0-1.3,0.8-2.1,2-2.1c1.2,0,2,0.8,2,2c0,0.1,0,0.3,0,0.4h-3
			c0.1,0.6,0.5,0.9,1,0.9c0.4,0,0.7-0.2,0.8-0.5H41C40.8,50.8,40.1,51.4,39.1,51.4z M38.1,48.9H40c0-0.5-0.4-0.9-1-0.9
			C38.6,48.1,38.2,48.4,38.1,48.9z"/>
		<path class="st3" d="M43.4,51.4c-1,0-1.7-0.6-1.8-1.4h1c0,0.3,0.3,0.5,0.7,0.5c0.4,0,0.6-0.2,0.6-0.4c0-0.7-2.3-0.3-2.3-1.8
			c0-0.7,0.6-1.2,1.6-1.2c1,0,1.6,0.5,1.6,1.3h-1c0-0.3-0.3-0.5-0.7-0.5c-0.4,0-0.6,0.2-0.6,0.4c0,0.7,2.3,0.3,2.3,1.8
			C45,50.9,44.4,51.4,43.4,51.4z"/>
		<path class="st3" d="M47.6,51.4c-1.2,0-2-0.8-2-2.1c0-1.3,0.8-2.1,2-2.1c1.2,0,2,0.8,2,2c0,0.1,0,0.3,0,0.4h-3
			c0.1,0.6,0.5,0.9,1,0.9c0.4,0,0.7-0.2,0.8-0.5h1.1C49.3,50.8,48.6,51.4,47.6,51.4z M46.6,48.9h1.9c0-0.5-0.4-0.9-1-0.9
			C47.1,48.1,46.7,48.4,46.6,48.9z"/>
		<path class="st3" d="M51.4,51.4h-1v-4.1h1v0.6c0.3-0.4,0.7-0.7,1.2-0.7v1.1h-0.3c-0.6,0-1,0.2-1,1V51.4z"/>
		<path class="st3" d="M54,47.3l1,3.1l1-3.1h1.1l-1.5,4.1h-1.2l-1.5-4.1H54z"/>
		<path class="st3" d="M59.3,47.2c0.7,0,1.1,0.3,1.3,0.6v-0.6h1v4.1h-1v-0.6c-0.2,0.4-0.7,0.7-1.4,0.7c-1,0-1.8-0.8-1.8-2.1
			S58.3,47.2,59.3,47.2z M59.6,48.1c-0.6,0-1.1,0.4-1.1,1.2s0.5,1.2,1.1,1.2c0.6,0,1.1-0.4,1.1-1.2S60.1,48.1,59.6,48.1z"/>
		<path class="st3" d="M62.9,48.1h-0.5v-0.8h0.5v-1h1v1h0.9v0.8h-0.9v2c0,0.3,0.1,0.4,0.4,0.4h0.5v0.9h-0.6c-0.8,0-1.3-0.3-1.3-1.3
			V48.1z"/>
		<path class="st3" d="M65.4,46.2c0-0.3,0.3-0.6,0.6-0.6c0.4,0,0.6,0.3,0.6,0.6s-0.3,0.6-0.6,0.6C65.7,46.8,65.4,46.5,65.4,46.2z
			 M65.5,47.3h1v4.1h-1V47.3z"/>
		<path class="st3" d="M68.2,47.3l1,3.1l1-3.1h1.1l-1.5,4.1h-1.2l-1.5-4.1H68.2z"/>
		<path class="st3" d="M73.7,51.4c-1.2,0-2-0.8-2-2.1c0-1.3,0.8-2.1,2-2.1c1.2,0,2,0.8,2,2c0,0.1,0,0.3,0,0.4h-3
			c0.1,0.6,0.5,0.9,1,0.9c0.4,0,0.7-0.2,0.8-0.5h1.1C75.4,50.8,74.8,51.4,73.7,51.4z M72.8,48.9h1.9c0-0.5-0.4-0.9-1-0.9
			C73.2,48.1,72.8,48.4,72.8,48.9z"/>
		<path class="st3" d="M78.1,51.4c-1,0-1.7-0.6-1.8-1.4h1c0,0.3,0.3,0.5,0.7,0.5c0.4,0,0.6-0.2,0.6-0.4c0-0.7-2.3-0.3-2.3-1.8
			c0-0.7,0.6-1.2,1.6-1.2c1,0,1.6,0.5,1.6,1.3h-1c0-0.3-0.3-0.5-0.7-0.5c-0.4,0-0.6,0.2-0.6,0.4c0,0.7,2.3,0.3,2.3,1.8
			C79.7,50.9,79,51.4,78.1,51.4z"/>
	</g>
</g>
</svg>
