<?xml version="1.0" encoding="utf-8"?>
<!-- Generator: Adobe Illustrator 25.0.0, SVG Export Plug-In . SVG Version: 6.00 Build 0)  -->
<svg version="1.1" id="Layer_1" xmlns="http://www.w3.org/2000/svg" xmlns:xlink="http://www.w3.org/1999/xlink" x="0px" y="0px"
	 viewBox="0 0 107.3 67.6" style="enable-background:new 0 0 107.3 67.6;" xml:space="preserve">
<style type="text/css">
	.st0{fill:#F0B61D;}
	.st1{fill:#71C058;}
	.st2{fill:#1AAB4F;}
	.st3{fill:#E6E7E8;}
</style>
<g>
	<path class="st0" d="M69.7,30.9c0.2-0.1,0.4-0.1,0.6-0.2c1.3-2.6,2.1-5.5,2.1-8.6C72.3,11.6,63.8,3,53.2,3c-6.9,0-13,3.7-16.3,9.2
		C49.5,15.4,60.8,22,69.7,30.9z"/>
	<path class="st1" d="M36.9,12.2C31.3,10.8,25.5,10,19.5,10c-5,0-9.9,0.5-14.6,1.5c-0.1,1-0.1,1.9-0.1,2.9v0
		c0,18.7,10.3,35,25.5,43.6c4.9-6.9,11-12.8,18-17.5c6.4-4.3,13.6-7.6,21.4-9.7C60.8,22,49.5,15.4,36.9,12.2z"/>
	<path class="st2" d="M87.9,28.5c-6.1,0-12,0.8-17.6,2.2c-0.2,0-0.4,0.1-0.6,0.2c-7.7,2-14.9,5.3-21.4,9.7c-7,4.7-13.1,10.7-18,17.5
		c7.3,4.1,15.7,6.5,24.6,6.5h0c11.4,0,21.9-3.8,30.3-10.2c8-6.1,14.1-14.5,17.3-24.3C97.8,29.1,92.9,28.5,87.9,28.5z"/>
</g>
<g>
	<path class="st3" d="M75.8,14.4h-0.9V17h-0.8v-2.6h-0.9v-0.7h2.5V14.4z"/>
	<path class="st3" d="M79.4,17h-0.8V15l-0.9,1.4h-0.1L76.8,15V17h-0.8v-3.3h0.8l0.9,1.5l0.9-1.5h0.8V17z"/>
</g>
</svg>
